<svg xmlns="http://www.w3.org/2000/svg" viewBox="0 0 60 75" x="0px" y="0px"><defs><style>.cls-1{fill:none;stroke:#000;stroke-linecap:round;stroke-linejoin:round;stroke-width:2px;}</style></defs><title>Movies - Outline - 042 - totoro</title><path class="cls-1" d="M54.02,40.35c-.01.03-.01.05-.02.08"/><path class="cls-1" d="M59,46.28V59H1V46.28a33.05965,33.05965,0,0,1,4.98-5.93A15.86114,15.86114,0,0,1,5.5,36.5C5.5,25.73,16.47,17,30,17s24.5,8.73,24.5,19.5a15.50072,15.50072,0,0,1-.48,3.85A33.05965,33.05965,0,0,1,59,46.28Z"/><circle class="cls-1" cx="17.5" cy="29" r="4"/><line class="cls-1" x1="17.5" y1="29" x2="17.5" y2="29"/><circle class="cls-1" cx="42.5" cy="29" r="4"/><line class="cls-1" x1="42.5" y1="29" x2="42.5" y2="29"/><path class="cls-1" d="M35,32c0,2-5,2-5,2s-5,0-5-2,5-2,5-2S35,30,35,32Z"/><path class="cls-1" d="M7.37,59C10.11,50.35,19.2,44,30,44s19.89,6.35,22.63,15"/><path class="cls-1" d="M14,55.5c0-1.38071,1.79086-2.5,4-2.5s4,1.11929,4,2.5"/><path class="cls-1" d="M26,52.5c0-1.38071,1.79086-2.5,4-2.5s4,1.11929,4,2.5"/><path class="cls-1" d="M38,56c0-1.38071,1.79086-2.5,4-2.5s4,1.11929,4,2.5"/><path class="cls-1" d="M21.95,17.88936l-1-3.98123,2.55-.64652L17.14115,1.5412a.98034.98034,0,0,0-1.84944.519L14.5,15.53011l2.17-.54444L18,19.5"/><path class="cls-1" d="M42,19.5l1.33-4.51433,2.17.54444-.7917-13.4699a.98034.98034,0,0,0-1.84944-.519L36.5,13.2616l2.55.64652-1,3.98123"/><line class="cls-1" x1="13" y1="35" x2="1" y2="33"/><line class="cls-1" x1="1" y1="39" x2="13" y2="38"/><line class="cls-1" x1="47" y1="35" x2="59" y2="33"/><line class="cls-1" x1="59" y1="39" x2="47" y2="38"/><text x="0" y="75" fill="#000000" font-size="5px" font-weight="bold" font-family="'Helvetica Neue', Helvetica, Arial-Unicode, Arial, Sans-serif">Created by Ben Davis</text><text x="0" y="80" fill="#000000" font-size="5px" font-weight="bold" font-family="'Helvetica Neue', Helvetica, Arial-Unicode, Arial, Sans-serif">from the Noun Project</text></svg>